<svg width="24" height="24" viewBox="0 0 24 24" fill="none" xmlns="http://www.w3.org/2000/svg">
<path d="M5.95312 4.65V3.75C5.95312 3.3375 5.61563 3 5.20312 3C4.79062 3 4.45312 3.3375 4.45312 3.75V4.75781C4.05469 5.02969 3.79688 5.48438 3.79688 6C3.79688 6.51562 4.05469 6.97031 4.45312 7.24219V20.25C4.45312 20.6625 4.79062 21 5.20312 21C5.61563 21 5.95312 20.6625 5.95312 20.25V7.35C6.45469 7.10625 6.79688 6.59531 6.79688 6C6.79688 5.40469 6.45469 4.89375 5.95312 4.65ZM10.4531 13.7297V3.75C10.4531 3.3375 10.1156 3 9.70312 3C9.29062 3 8.95312 3.3375 8.95312 3.75V13.6734C8.47969 13.9266 8.15625 14.4234 8.15625 15C8.15625 15.5766 8.47969 16.0734 8.95312 16.3266V20.25C8.95312 20.6625 9.29062 21 9.70312 21C10.1156 21 10.4531 20.6625 10.4531 20.25V16.2703C10.875 16.0031 11.1562 15.5344 11.1562 15C11.1562 14.4656 10.875 13.9969 10.4531 13.7297ZM14.9531 7.65469V3.75C14.9531 3.3375 14.6156 3 14.2031 3C13.7906 3 13.4531 3.3375 13.4531 3.75V7.65469C13.0031 7.9125 12.7031 8.4 12.7031 8.95312C12.7031 9.50625 13.0031 9.99375 13.4531 10.2516V20.25C13.4531 20.6625 13.7906 21 14.2031 21C14.6156 21 14.9531 20.6625 14.9531 20.25V10.2516C15.4031 9.99375 15.7031 9.50625 15.7031 8.95312C15.7031 8.4 15.4031 7.9125 14.9531 7.65469ZM20.2031 17.9531C20.2031 17.4 19.9031 16.9125 19.4531 16.6547V3.75C19.4531 3.3375 19.1156 3 18.7031 3C18.2906 3 17.9531 3.3375 17.9531 3.75V16.6547C17.5031 16.9125 17.2031 17.4 17.2031 17.9531C17.2031 18.5063 17.5031 18.9938 17.9531 19.2516V20.25C17.9531 20.6625 18.2906 21 18.7031 21C19.1156 21 19.4531 20.6625 19.4531 20.25V19.2516C19.9031 18.9938 20.2031 18.5063 20.2031 17.9531Z" fill="#111827"/>
</svg>
