<svg width="24" height="24" viewBox="0 0 24 24" fill="none" xmlns="http://www.w3.org/2000/svg">
<path d="M19.972 8.519C19.8119 8.282 19.596 8.08793 19.3434 7.95385C19.0907 7.81977 18.809 7.74977 18.523 7.75H9C8.80109 7.75 8.61032 7.82902 8.46967 7.96967C8.32902 8.11032 8.25 8.30109 8.25 8.5V17.5C8.25053 17.964 8.43507 18.4088 8.76315 18.7369C9.09122 19.0649 9.53603 19.2495 10 19.25H18.523C18.809 19.2501 19.0907 19.1801 19.3433 19.046C19.596 18.912 19.8119 18.7181 19.9722 18.4812C20.1325 18.2443 20.2322 17.9717 20.2627 17.6874C20.2932 17.403 20.2535 17.1155 20.147 16.85L18.808 13.5L20.147 10.149C20.2535 9.88374 20.2932 9.59639 20.2627 9.31218C20.2322 9.02798 20.1324 8.75561 19.972 8.519Z" fill="#B135EA"/>
<path d="M5 22.75C4.80109 22.75 4.61032 22.671 4.46967 22.5303C4.32902 22.3897 4.25 22.1989 4.25 22V6C4.25 5.80109 4.32902 5.61032 4.46967 5.46967C4.61032 5.32902 4.80109 5.25 5 5.25C5.19891 5.25 5.38968 5.32902 5.53033 5.46967C5.67098 5.61032 5.75 5.80109 5.75 6V22C5.75 22.1989 5.67098 22.3897 5.53033 22.5303C5.38968 22.671 5.19891 22.75 5 22.75Z" fill="#090909"/>
<path d="M13 5.75H4.25V16.25H13C13.464 16.2497 13.909 16.0653 14.2371 15.7371C14.5653 15.409 14.7497 14.964 14.75 14.5V7.5C14.7497 7.03595 14.5653 6.59099 14.2371 6.26286C13.909 5.93472 13.464 5.75026 13 5.75Z" fill="#F27FF8"/>
<path d="M5 6C6.10457 6 7 5.10457 7 4C7 2.89543 6.10457 2 5 2C3.89543 2 3 2.89543 3 4C3 5.10457 3.89543 6 5 6Z" fill="#FBBC05"/>
</svg>
