<svg width="24" height="24" viewBox="0 0 24 24" fill="none" xmlns="http://www.w3.org/2000/svg">
<path d="M14.0244 3.47035L15.7102 6.70212C15.966 7.18202 16.4326 7.51943 16.9744 7.59443L20.5341 8.08185C22.4381 8.34428 23.1756 10.6913 21.7683 11.996L19.33 14.2454C18.9085 14.6354 18.7129 15.2127 18.8182 15.7751L19.4128 19.0743C19.7439 20.9114 17.8324 22.3436 16.1542 21.5038L12.7525 19.8167C12.2785 19.5842 11.7215 19.5842 11.2474 19.8167L7.84582 21.5038C6.1676 22.3361 4.25608 20.9114 4.58721 19.0743L5.18173 15.7751C5.28709 15.2127 5.09143 14.6354 4.66999 14.2454L2.23167 11.996C0.824369 10.6988 1.56188 8.34428 3.46588 8.08185L7.02553 7.59443C7.56735 7.51943 8.0415 7.18951 8.28982 6.70212L9.9756 3.47035C10.8335 1.84322 13.174 1.84322 14.0244 3.47035Z" fill="#111827"/>
</svg>
