<svg width="24" height="24" viewBox="0 0 24 24" fill="none" xmlns="http://www.w3.org/2000/svg">
<path d="M18 12.018C18.0024 11.8837 17.9776 11.7502 17.9273 11.6257C17.8769 11.5011 17.802 11.388 17.707 11.293L8.70699 2.29301C8.51838 2.11085 8.26578 2.01006 8.00359 2.01234C7.74139 2.01461 7.49058 2.11978 7.30517 2.30519C7.11976 2.4906 7.01459 2.74141 7.01231 3.00361C7.01003 3.26581 7.11083 3.51841 7.29299 3.70701L8.60999 5.02401L2.83999 11.212C2.57372 11.4782 2.36251 11.7942 2.2184 12.142C2.07429 12.4898 2.00012 12.8625 2.00012 13.239C2.00012 13.6155 2.07429 13.9883 2.2184 14.3361C2.36251 14.6839 2.57372 14.9999 2.83999 15.266L6.73299 19.16C7.26612 19.6933 7.988 19.9949 8.74206 19.9994C9.49611 20.0039 10.2215 19.7109 10.761 19.184L17.681 12.731C17.7793 12.6396 17.8582 12.5294 17.913 12.4069C17.9678 12.2845 17.9974 12.1522 18 12.018ZM10.025 6.43901L14.586 11H5.77199L10.025 6.43901ZM9.37299 17.746C9.20793 17.9038 8.98836 17.9919 8.75999 17.9919C8.53162 17.9919 8.31204 17.9038 8.14699 17.746L4.25399 13.853C4.17307 13.7728 4.10894 13.6773 4.06533 13.5721C4.02172 13.4668 3.99951 13.3539 3.99999 13.24C4.00456 13.1581 4.02107 13.0772 4.04899 13H14.462L9.37299 17.746ZM19.823 14.432C19.726 14.3059 19.6014 14.2037 19.4587 14.1334C19.316 14.0631 19.1591 14.0266 19 14.0266C18.8409 14.0266 18.684 14.0631 18.5413 14.1334C18.3986 14.2037 18.2739 14.3059 18.177 14.432C17.522 15.379 16 17.722 16 19C16 19.7957 16.3161 20.5587 16.8787 21.1213C17.4413 21.6839 18.2043 22 19 22C19.7956 22 20.5587 21.6839 21.1213 21.1213C21.6839 20.5587 22 19.7957 22 19C22 17.722 20.478 15.379 19.823 14.432ZM19 20C18.7348 20 18.4804 19.8947 18.2929 19.7071C18.1053 19.5196 18 19.2652 18 19C18.2168 18.2356 18.5544 17.5108 19 16.853C19.4456 17.5108 19.7832 18.2356 20 19C20 19.2652 19.8946 19.5196 19.7071 19.7071C19.5196 19.8947 19.2652 20 19 20Z" fill="#878E99"/>
</svg>
