<svg width="30" height="30" viewBox="0 0 30 30" fill="none" xmlns="http://www.w3.org/2000/svg">
<path d="M18.1584 20.339C18.8341 19.3645 19.2109 18.2141 19.2429 17.0288C19.2749 15.8434 18.9606 14.6744 18.3384 13.6649L20.6813 11.3221C21.4617 11.5997 22.3176 11.577 23.0822 11.2583C23.6728 11.0099 23.7816 10.2083 23.3288 9.75552L20.2313 6.65896C19.7775 6.20521 18.975 6.3149 18.7266 6.9074C18.4022 7.68566 18.3845 8.55784 18.6769 9.34865L16.3491 11.6765C15.3396 11.0544 14.1706 10.74 12.9852 10.772C11.7998 10.804 10.6495 11.1808 9.67501 11.8565C9.20532 12.1836 9.16688 12.8727 9.57188 13.2777L16.7372 20.443C17.1422 20.8471 17.8303 20.8086 18.1584 20.339Z" fill="#86A2FF"/>
<path d="M5.8725 24.1406L12.1706 15.855L14.1591 17.8434L5.8725 24.1406Z" fill="#262626"/>
<path d="M23.6588 9.4237L20.5622 6.32713C20.396 6.1611 20.1914 6.03863 19.9665 5.9706C19.7417 5.90257 19.5035 5.89108 19.2731 5.93713C18.8241 6.02526 18.4669 6.31307 18.2934 6.72557C17.9616 7.51591 17.9081 8.39551 18.1416 9.22026L16.2713 11.0906C15.2041 10.5112 13.9969 10.2401 12.7845 10.3075C11.5721 10.3748 10.4023 10.7781 9.40594 11.4721C9.24202 11.5868 9.10532 11.7361 9.00552 11.9094C8.90572 12.0828 8.84527 12.2759 8.82844 12.4753C8.79094 12.8971 8.94094 13.3106 9.23907 13.6087L11.5397 15.9093L5.49844 23.8584C5.44613 23.928 5.4142 24.0108 5.4062 24.0975C5.39821 24.1842 5.41447 24.2714 5.45318 24.3494C5.49188 24.4274 5.55151 24.4931 5.62539 24.5391C5.69927 24.5852 5.7845 24.6098 5.87157 24.6103C5.97411 24.61 6.0738 24.5764 6.15563 24.5146L14.1047 18.4734L16.4053 20.774C16.5525 20.9214 16.7304 21.0347 16.9263 21.1056C17.1222 21.1766 17.3313 21.2036 17.5388 21.1846C17.7381 21.1679 17.9313 21.1075 18.1047 21.0076C18.278 20.9078 18.4273 20.7711 18.5419 20.6071C19.2357 19.6107 19.6388 18.4409 19.7062 17.2286C19.7736 16.0162 19.5026 14.809 18.9234 13.7418L20.8116 11.8537C21.6241 12.0743 22.487 12.0168 23.2631 11.6906C23.6747 11.5181 23.9616 11.1618 24.0497 10.7128C24.0956 10.4823 24.0839 10.2441 24.0157 10.0193C23.9475 9.79441 23.8249 9.58985 23.6588 9.4237ZM8.32594 21.6871L12.21 16.5768L13.4363 17.8031L8.32594 21.6871ZM22.9003 10.8262C22.2433 11.1007 21.5075 11.1201 20.8369 10.8806C20.7535 10.8508 20.6634 10.8454 20.577 10.865C20.4907 10.8846 20.4117 10.9283 20.3494 10.9912L18.0066 13.334C17.932 13.4086 17.8847 13.5062 17.8725 13.611C17.8602 13.7158 17.8837 13.8217 17.9391 13.9115C18.5154 14.8426 18.8068 15.9219 18.7773 17.0165C18.7479 18.1111 18.3988 19.1732 17.7731 20.0718C17.7367 20.1231 17.6895 20.1658 17.6347 20.1968C17.5799 20.2277 17.519 20.2462 17.4563 20.2509C17.3853 20.2576 17.3137 20.2486 17.2466 20.2245C17.1795 20.2003 17.1185 20.1616 17.0681 20.1112L14.5275 17.5706C14.5134 17.5518 14.5069 17.5293 14.49 17.5124L12.5016 15.524C12.4847 15.5071 12.4622 15.5006 12.4434 15.4865L9.90282 12.9459C9.85247 12.8954 9.81386 12.8345 9.78972 12.7674C9.76558 12.7003 9.7565 12.6287 9.76313 12.5578C9.76776 12.495 9.78621 12.434 9.81717 12.3793C9.84813 12.3245 9.89082 12.2772 9.94219 12.2409C10.8818 11.5855 12 11.2343 13.1456 11.2349C14.1675 11.2349 15.1931 11.5143 16.1016 12.0749C16.1914 12.1302 16.2973 12.1535 16.402 12.1413C16.5068 12.1291 16.6044 12.0819 16.6791 12.0074L19.0069 9.68057C19.0702 9.61733 19.1141 9.53729 19.1333 9.4499C19.1526 9.36252 19.1465 9.27145 19.1156 9.18745C18.8626 8.50818 18.8773 7.75811 19.1569 7.08932C19.183 7.02908 19.2238 6.97634 19.2756 6.93589C19.3273 6.89545 19.3884 6.86859 19.4531 6.85776C19.5326 6.84197 19.6147 6.84584 19.6923 6.86904C19.7699 6.89225 19.8407 6.93407 19.8984 6.99088L22.995 10.0874C23.0517 10.1453 23.0935 10.216 23.1169 10.2936C23.1402 10.3712 23.1444 10.4532 23.1291 10.5328C23.1186 10.5969 23.0922 10.6575 23.0522 10.7088C23.0123 10.76 22.96 10.8004 22.9003 10.8262Z" fill="#262626"/>
</svg>
