<svg width="30" height="30" viewBox="0 0 30 30" fill="none" xmlns="http://www.w3.org/2000/svg">
<path d="M11.8416 20.339C11.1659 19.3645 10.7891 18.2141 10.7571 17.0288C10.7251 15.8434 11.0394 14.6744 11.6616 13.6649L9.31874 11.3221C8.53828 11.5997 7.68244 11.577 6.91781 11.2583C6.32718 11.0099 6.21843 10.2083 6.67124 9.75552L9.76874 6.65896C10.2225 6.20521 11.025 6.3149 11.2734 6.9074C11.5978 7.68566 11.6155 8.55784 11.3231 9.34865L13.6509 11.6765C14.6604 11.0544 15.8294 10.74 17.0148 10.772C18.2002 10.804 19.3505 11.1808 20.325 11.8565C20.7947 12.1836 20.8331 12.8727 20.4281 13.2777L13.2628 20.443C12.8578 20.8471 12.1697 20.8086 11.8416 20.339Z" fill="#86A2FF"/>
<path d="M24.1275 24.1406L17.8294 15.855L15.8409 17.8434L24.1275 24.1406Z" fill="#262626"/>
<path d="M6.34126 9.4237L9.43782 6.32713C9.60402 6.1611 9.80862 6.03863 10.0335 5.9706C10.2583 5.90257 10.4965 5.89108 10.7269 5.93713C11.1759 6.02526 11.5331 6.31307 11.7066 6.72557C12.0384 7.51591 12.0919 8.39551 11.8584 9.22026L13.7288 11.0906C14.7959 10.5112 16.0031 10.2401 17.2155 10.3075C18.4279 10.3748 19.5977 10.7781 20.5941 11.4721C20.758 11.5868 20.8947 11.7361 20.9945 11.9094C21.0943 12.0828 21.1547 12.2759 21.1716 12.4753C21.2091 12.8971 21.0591 13.3106 20.7609 13.6087L18.4603 15.9093L24.5016 23.8584C24.5539 23.928 24.5858 24.0108 24.5938 24.0975C24.6018 24.1842 24.5855 24.2714 24.5468 24.3494C24.5081 24.4274 24.4485 24.4931 24.3746 24.5391C24.3007 24.5852 24.2155 24.6098 24.1284 24.6103C24.0259 24.61 23.9262 24.5764 23.8444 24.5146L15.8953 18.4734L13.5947 20.774C13.4475 20.9214 13.2696 21.0347 13.0737 21.1056C12.8779 21.1766 12.6687 21.2036 12.4613 21.1846C12.2619 21.1679 12.0687 21.1075 11.8954 21.0076C11.722 20.9078 11.5727 20.7711 11.4581 20.6071C10.7643 19.6107 10.3612 18.4409 10.2938 17.2286C10.2264 16.0162 10.4974 14.809 11.0766 13.7418L9.18845 11.8537C8.37594 12.0743 7.51301 12.0168 6.73688 11.6906C6.32532 11.5181 6.03845 11.1618 5.95032 10.7128C5.90446 10.4823 5.91615 10.2441 5.98434 10.0193C6.05253 9.79441 6.17512 9.58985 6.34126 9.4237ZM21.6741 21.6871L17.79 16.5768L16.5638 17.8031L21.6741 21.6871ZM7.0997 10.8262C7.75673 11.1007 8.49256 11.1201 9.16313 10.8806C9.24651 10.8508 9.33664 10.8454 9.42298 10.865C9.50931 10.8846 9.58828 10.9283 9.65064 10.9912L11.9934 13.334C12.0681 13.4086 12.1153 13.5062 12.1276 13.611C12.1398 13.7158 12.1163 13.8217 12.0609 13.9115C11.4846 14.8426 11.1932 15.9219 11.2227 17.0165C11.2522 18.1111 11.6012 19.1732 12.2269 20.0718C12.2633 20.1231 12.3105 20.1658 12.3653 20.1968C12.4201 20.2277 12.481 20.2462 12.5438 20.2509C12.6148 20.2576 12.6864 20.2486 12.7535 20.2245C12.8206 20.2003 12.8815 20.1616 12.9319 20.1112L15.4725 17.5706C15.4866 17.5518 15.4931 17.5293 15.51 17.5124L17.4984 15.524C17.5153 15.5071 17.5378 15.5006 17.5566 15.4865L20.0972 12.9459C20.1475 12.8954 20.1862 12.8345 20.2103 12.7674C20.2344 12.7003 20.2435 12.6287 20.2369 12.5578C20.2323 12.495 20.2138 12.434 20.1828 12.3793C20.1519 12.3245 20.1092 12.2772 20.0578 12.2409C19.1182 11.5855 18 11.2343 16.8544 11.2349C15.8325 11.2349 14.8069 11.5143 13.8984 12.0749C13.8086 12.1302 13.7028 12.1535 13.598 12.1413C13.4932 12.1291 13.3956 12.0819 13.3209 12.0074L10.9931 9.68057C10.9298 9.61733 10.886 9.53729 10.8667 9.4499C10.8474 9.36252 10.8536 9.27145 10.8844 9.18745C11.1374 8.50818 11.1227 7.75811 10.8431 7.08932C10.817 7.02908 10.7762 6.97634 10.7244 6.93589C10.6727 6.89545 10.6117 6.86859 10.5469 6.85776C10.4674 6.84197 10.3853 6.84584 10.3077 6.86904C10.2301 6.89225 10.1593 6.93407 10.1016 6.99088L7.00501 10.0874C6.9483 10.1453 6.90648 10.216 6.88313 10.2936C6.85978 10.3712 6.8556 10.4532 6.87095 10.5328C6.88137 10.5969 6.90779 10.6575 6.94777 10.7088C6.98774 10.76 7.03999 10.8004 7.0997 10.8262Z" fill="#262626"/>
</svg>
