<svg width="24" height="24" viewBox="0 0 24 24" fill="none" xmlns="http://www.w3.org/2000/svg">
<path d="M10 18C10.2652 18 10.5196 17.8947 10.7071 17.7071C10.8947 17.5196 11 17.2652 11 17V11C11 10.7348 10.8947 10.4804 10.7071 10.2929C10.5196 10.1054 10.2652 10 10 10C9.73479 10 9.48044 10.1054 9.2929 10.2929C9.10537 10.4804 9.00001 10.7348 9.00001 11V17C9.00001 17.2652 9.10537 17.5196 9.2929 17.7071C9.48044 17.8947 9.73479 18 10 18ZM20 6.00001H16V5C16 4.20435 15.6839 3.44129 15.1213 2.87868C14.5587 2.31607 13.7957 2 13 2H11C10.2044 2 9.4413 2.31607 8.87869 2.87868C8.31608 3.44129 8.00001 4.20435 8.00001 5V6.00001H4C3.73478 6.00001 3.48043 6.10536 3.29289 6.2929C3.10536 6.48044 3 6.73479 3 7.00001C3 7.26522 3.10536 7.51958 3.29289 7.70711C3.48043 7.89465 3.73478 8.00001 4 8.00001H5V19C5 19.7957 5.31607 20.5587 5.87868 21.1213C6.44129 21.684 7.20436 22 8.00001 22H16C16.7957 22 17.5587 21.684 18.1213 21.1213C18.684 20.5587 19 19.7957 19 19V8.00001H20C20.2652 8.00001 20.5196 7.89465 20.7071 7.70711C20.8947 7.51958 21 7.26522 21 7.00001C21 6.73479 20.8947 6.48044 20.7071 6.2929C20.5196 6.10536 20.2652 6.00001 20 6.00001ZM10 5C10 4.73479 10.1054 4.48043 10.2929 4.2929C10.4804 4.10536 10.7348 4 11 4H13C13.2652 4 13.5196 4.10536 13.7071 4.2929C13.8947 4.48043 14 4.73479 14 5V6.00001H10V5ZM17 19C17 19.2652 16.8947 19.5196 16.7071 19.7071C16.5196 19.8947 16.2652 20 16 20H8.00001C7.73479 20 7.48044 19.8947 7.2929 19.7071C7.10536 19.5196 7.00001 19.2652 7.00001 19V8.00001H17V19ZM14 18C14.2652 18 14.5196 17.8947 14.7071 17.7071C14.8947 17.5196 15 17.2652 15 17V11C15 10.7348 14.8947 10.4804 14.7071 10.2929C14.5196 10.1054 14.2652 10 14 10C13.7348 10 13.4804 10.1054 13.2929 10.2929C13.1054 10.4804 13 10.7348 13 11V17C13 17.2652 13.1054 17.5196 13.2929 17.7071C13.4804 17.8947 13.7348 18 14 18Z" fill="#272D36"/>
</svg>
