<svg width="24" height="24" viewBox="0 0 24 24" fill="none" xmlns="http://www.w3.org/2000/svg">
<g clip-path="url(#clip0_67_4552)">
<path d="M13.545 15.7875C12.8646 17.3688 11.584 18.6151 9.98481 19.2522C8.38562 19.8893 6.59885 19.8652 5.01748 19.185C4.97323 19.1646 4.93869 19.1277 4.92119 19.0821C4.90369 19.0366 4.9046 18.9861 4.92373 18.9413C4.93313 18.9187 4.94694 18.8982 4.96435 18.8811C4.98175 18.8639 5.00242 18.8504 5.02512 18.8413C5.04782 18.8322 5.0721 18.8278 5.09655 18.8282C5.12099 18.8286 5.14511 18.8339 5.16748 18.8438C6.65899 19.4842 8.34369 19.5067 9.85177 18.9063C11.3599 18.3059 12.5681 17.1316 13.2112 15.6413C13.2202 15.6188 13.2337 15.5984 13.2507 15.5813C13.2678 15.5642 13.2881 15.5507 13.3105 15.5416C13.3329 15.5325 13.3569 15.528 13.3811 15.5283C13.4053 15.5287 13.4291 15.534 13.4512 15.5438C13.4735 15.5535 13.4936 15.5676 13.5103 15.5851C13.5271 15.6027 13.5402 15.6234 13.5489 15.6461C13.5577 15.6688 13.5618 15.6929 13.5611 15.7172C13.5604 15.7415 13.555 15.7654 13.545 15.7875Z" fill="#090909"/>
<path d="M22.605 6.51L22.1475 6.01875L22.3012 5.36625C22.3083 5.33215 22.3061 5.29677 22.2949 5.2638C22.2837 5.23083 22.2639 5.20146 22.2375 5.17875C22.21 5.15773 22.1774 5.14453 22.1431 5.14057C22.1087 5.13661 22.074 5.14203 22.0425 5.15625L21.4312 5.43L20.8575 5.08875C20.829 5.07034 20.7958 5.06055 20.7618 5.06055C20.7279 5.06055 20.6947 5.07034 20.6662 5.08875C20.6366 5.10697 20.6129 5.1332 20.5976 5.16439C20.5823 5.19559 20.5762 5.23047 20.58 5.265L20.6587 5.92875L20.1525 6.375C20.1267 6.39893 20.1077 6.42914 20.0971 6.46268C20.0866 6.49621 20.085 6.5319 20.0925 6.56625C20.1027 6.59864 20.1213 6.6278 20.1463 6.65082C20.1713 6.67384 20.2018 6.68993 20.235 6.6975L20.5387 6.76125C19.4962 7.4475 18.645 6.76125 16.9612 5.4C16.4475 4.98 15.8662 4.5075 15.1912 4.005C14.2912 3.345 13.47 3.08625 12.7387 3.255C12.4115 3.338 12.1049 3.48735 11.8378 3.69377C11.5708 3.9002 11.349 4.1593 11.1862 4.455C10.3708 4.10461 9.52633 3.82605 8.66246 3.6225C8.62067 3.61114 8.57616 3.61557 8.53743 3.63494C8.4987 3.6543 8.46845 3.68725 8.45246 3.7275L7.62746 5.625C6.13683 5.61621 4.67681 6.04785 3.43059 6.86577C2.18437 7.68368 1.20747 8.85143 0.622461 10.2225C-0.171115 12.0696 -0.199452 14.1561 0.54367 16.0241C1.28679 17.8921 2.74066 19.389 4.58621 20.1862C6.19281 20.8768 7.98871 20.9908 9.66973 20.509C11.3508 20.0271 12.8136 18.9791 13.8104 17.5423C14.8072 16.1055 15.2768 14.3683 15.1396 12.625C15.0024 10.8817 14.2668 9.23938 13.0575 7.97625L13.875 6.0675C13.8924 6.02715 13.8948 5.98188 13.8817 5.93991C13.8687 5.89794 13.841 5.86205 13.8037 5.83875C13.0801 5.35812 12.3175 4.93915 11.5237 4.58625C11.6628 4.34472 11.8485 4.13318 12.0699 3.96389C12.2913 3.7946 12.5442 3.67092 12.8137 3.6C13.4362 3.46875 14.1637 3.705 14.9662 4.30125C15.6412 4.79625 16.215 5.265 16.7287 5.6775C17.9475 6.6675 18.8437 7.39875 19.7287 7.39875C20.1713 7.38462 20.5953 7.21766 20.9287 6.92625L21.15 7.44375C21.1624 7.47582 21.1839 7.50356 21.2119 7.52355C21.2399 7.54354 21.2731 7.55491 21.3075 7.55625C21.3398 7.55657 21.3716 7.54799 21.3994 7.53146C21.4271 7.51492 21.4498 7.49106 21.465 7.4625L21.7987 6.8775L22.5 6.82125C22.5344 6.81813 22.5672 6.80516 22.5945 6.78388C22.6218 6.76259 22.6423 6.73391 22.6537 6.70125C22.6646 6.66803 22.6658 6.6324 22.6572 6.59852C22.6486 6.56465 22.6304 6.53394 22.605 6.51ZM14.2837 10.5525C14.9913 12.3298 14.964 14.3154 14.2076 16.0725C13.4513 17.8296 12.0279 19.2142 10.2506 19.9219C9.37056 20.2723 8.43015 20.4459 7.48303 20.4328C6.53591 20.4198 5.60064 20.2203 4.73061 19.8458C2.97351 19.0894 1.58884 17.666 0.881211 15.8887C0.351215 14.5635 0.226634 13.1107 0.523259 11.7146C0.819884 10.3184 1.52436 9.04177 2.54738 8.04646C3.5704 7.05115 4.86591 6.382 6.26967 6.12382C7.67344 5.86564 9.12225 6.03006 10.4325 6.59625C11.2744 6.95921 12.0384 7.48126 12.6825 8.13375C12.6919 8.14557 12.7034 8.15571 12.7162 8.16375C13.3926 8.84767 13.9255 9.65981 14.2837 10.5525ZM13.5 6.06375L12.795 7.70625C11.5018 6.47355 9.80924 5.74571 8.02496 5.655L8.72996 4.01625C10.4252 4.4213 12.0386 5.11382 13.5 6.06375ZM21.705 6.52125C21.6753 6.52381 21.6466 6.53328 21.6212 6.54891C21.5958 6.56454 21.5744 6.58588 21.5587 6.61125L21.3675 6.95625L21.21 6.58125C21.2003 6.5524 21.1829 6.52672 21.1598 6.50691C21.1367 6.48711 21.1087 6.47392 21.0787 6.46875L20.7037 6.39L20.9962 6.13125C21.0198 6.11298 21.0382 6.08877 21.0494 6.0611C21.0606 6.03344 21.0642 6.00329 21.06 5.97375L21.015 5.59875L21.3525 5.80125C21.3791 5.81505 21.4087 5.82226 21.4387 5.82226C21.4687 5.82226 21.4983 5.81505 21.525 5.80125L21.9 5.64L21.81 6.015C21.8032 6.04407 21.8038 6.07438 21.8116 6.10318C21.8195 6.13199 21.8344 6.15838 21.855 6.18L22.1212 6.46875L21.705 6.52125Z" fill="#090909"/>
<path d="M22.0801 6.48376L21.6863 6.52125C21.6566 6.52382 21.6279 6.53329 21.6025 6.54892C21.5771 6.56454 21.5557 6.58589 21.5401 6.61125L21.3488 6.95625L21.1913 6.58125C21.1816 6.55241 21.1643 6.52673 21.1412 6.50692C21.1181 6.48712 21.09 6.47393 21.0601 6.46875L20.6851 6.39001L20.9776 6.13125C21.0012 6.11299 21.0195 6.08878 21.0307 6.06111C21.0419 6.03344 21.0456 6.0033 21.0413 5.97375L20.9963 5.59875L21.3338 5.80125C21.3605 5.81506 21.39 5.82227 21.4201 5.82227C21.4501 5.82227 21.4797 5.81506 21.5063 5.80125L21.8813 5.64L21.7913 6.01501C21.7845 6.04408 21.7851 6.07439 21.793 6.10319C21.8008 6.13199 21.8157 6.15839 21.8363 6.18L22.0801 6.48376Z" fill="#FBBC05"/>
<path d="M14.2837 10.5525C13.9355 9.66264 13.4142 8.85071 12.75 8.16376C12.7371 8.15572 12.7257 8.14558 12.7162 8.13376C12.0721 7.48127 11.3082 6.95922 10.4662 6.59626C8.93665 5.92753 7.22245 5.81019 5.61603 6.26425C4.00961 6.71831 2.61048 7.71565 1.65731 9.08613C0.704131 10.4566 0.255959 12.1153 0.38924 13.7794C0.522522 15.4434 1.229 17.0096 2.38816 18.2109C3.54732 19.4122 5.08736 20.1742 6.74558 20.3667C8.40379 20.5593 10.0775 20.1706 11.4811 19.267C12.8847 18.3633 13.9313 17.0006 14.4424 15.4114C14.9535 13.8223 14.8974 12.105 14.2837 10.5525ZM13.5337 15.8025C12.8533 17.3838 11.5727 18.6301 9.97354 19.2672C8.37436 19.9043 6.58758 19.8802 5.00621 19.2C4.96196 19.1795 4.92743 19.1426 4.90992 19.0971C4.89242 19.0516 4.89333 19.0011 4.91246 18.9563C4.92186 18.9337 4.93567 18.9132 4.95308 18.8961C4.97049 18.8789 4.99115 18.8654 5.01385 18.8563C5.03655 18.8472 5.06084 18.8427 5.08528 18.8432C5.10973 18.8436 5.13384 18.8489 5.15621 18.8588C6.64772 19.4992 8.33243 19.5217 9.84051 18.9213C11.3486 18.3209 12.5568 17.1466 13.2 15.6563C13.209 15.6338 13.2224 15.6134 13.2395 15.5963C13.2565 15.5792 13.2769 15.5656 13.2993 15.5565C13.3217 15.5474 13.3457 15.543 13.3698 15.5433C13.394 15.5437 13.4179 15.549 13.44 15.5588C13.4833 15.5764 13.5183 15.6098 13.5378 15.6523C13.5573 15.6948 13.5599 15.7432 13.545 15.7875L13.5337 15.8025Z" fill="#5E1D6E"/>
<path d="M9.82877 6.37499C9.20571 6.18805 8.55392 6.11563 7.90502 6.16124C6.14251 6.31749 4.51367 7.16562 3.37502 8.51999C2.12637 9.94231 1.40015 11.748 1.31627 13.6387C1.193 15.4111 1.76919 17.1612 2.92127 18.5137C3.36796 19.0148 3.90315 19.4292 4.50002 19.7362C2.84717 18.9493 1.55571 17.5628 0.887813 15.8584C0.219913 14.1539 0.225621 12.2592 0.903778 10.5588C1.58193 8.85835 2.88172 7.47971 4.53928 6.7027C6.19685 5.92568 8.08797 5.80852 9.82877 6.37499Z" fill="#090909"/>
<path d="M14.2088 16.0725C13.4922 17.7325 12.1785 19.0629 10.5278 19.8004C8.87707 20.5379 7.00959 20.6288 5.29504 20.055C6.2416 20.3211 7.23905 20.3505 8.19964 20.1406C9.16022 19.9307 10.0545 19.4879 10.8038 18.8513C12.0276 18.1568 12.9904 17.0807 13.545 15.7875C13.5576 15.7653 13.5655 15.7406 13.568 15.7152C13.5706 15.6898 13.5678 15.6641 13.5598 15.6398C13.5518 15.6155 13.5389 15.5931 13.5218 15.5741C13.5047 15.5551 13.4838 15.5398 13.4605 15.5293C13.4372 15.5189 13.4119 15.5134 13.3864 15.5132C13.3608 15.513 13.3355 15.5182 13.312 15.5284C13.2885 15.5386 13.2675 15.5535 13.2501 15.5723C13.2328 15.5911 13.2196 15.6133 13.2113 15.6375C13.5902 14.7376 13.8073 13.7779 13.8525 12.8025C13.8954 11.8846 13.7683 10.9667 13.4775 10.095C13.4751 10.0826 13.4751 10.0699 13.4775 10.0575C13.2154 9.27104 12.7956 8.54627 12.2438 7.92753C11.7736 7.39566 11.2026 6.9623 10.5638 6.65253C11.3606 7.01809 12.0838 7.52647 12.6975 8.15253C12.707 8.16435 12.7184 8.17449 12.7313 8.18253C13.7333 9.20614 14.4087 10.5043 14.6718 11.9124C14.9348 13.3205 14.7737 14.7749 14.2088 16.0913V16.0725Z" fill="#DC42F4"/>
<path d="M22.08 4.61628C22.1036 4.6202 22.1276 4.6202 22.1512 4.61628C22.1872 4.61568 22.2222 4.60476 22.2521 4.58481C22.282 4.56487 22.3056 4.53674 22.32 4.50378L22.5862 3.88503C22.6056 3.84027 22.6064 3.78965 22.5885 3.74429C22.5706 3.69893 22.5354 3.66255 22.4906 3.64315C22.4458 3.62376 22.3952 3.62294 22.3499 3.64087C22.3045 3.6588 22.2681 3.69402 22.2487 3.73878L21.9825 4.35753C21.9707 4.38073 21.9639 4.40612 21.9625 4.43208C21.9611 4.45805 21.9651 4.48402 21.9743 4.50836C21.9835 4.53269 21.9976 4.55485 22.0158 4.57343C22.034 4.59201 22.0558 4.6066 22.08 4.61628ZM20.4862 4.50003C20.5007 4.53398 20.5247 4.56303 20.5553 4.58366C20.5859 4.60428 20.6218 4.61561 20.6587 4.61628H20.7262C20.749 4.60758 20.7698 4.59443 20.7875 4.57761C20.8051 4.56078 20.8192 4.54061 20.829 4.51827C20.8388 4.49594 20.844 4.47188 20.8444 4.4475C20.8448 4.42312 20.8403 4.39891 20.8312 4.37628L20.5837 3.75003C20.5747 3.72758 20.5613 3.70715 20.5443 3.68991C20.5273 3.67266 20.5071 3.65894 20.4848 3.64953C20.4625 3.64012 20.4385 3.63521 20.4143 3.63508C20.3901 3.63495 20.3661 3.63961 20.3437 3.64878C20.321 3.65748 20.3001 3.67062 20.2825 3.68745C20.2648 3.70428 20.2507 3.72444 20.241 3.74678C20.2312 3.76912 20.2259 3.79318 20.2256 3.81756C20.2252 3.84194 20.2297 3.86615 20.2387 3.88878L20.4862 4.50003ZM18.9 5.37003L19.5187 5.63628C19.5423 5.64019 19.5664 5.64019 19.59 5.63628C19.6259 5.63568 19.661 5.62476 19.6909 5.60481C19.7208 5.58487 19.7443 5.55674 19.7587 5.52378C19.7776 5.47847 19.778 5.42757 19.7598 5.38199C19.7415 5.33642 19.7062 5.29981 19.6612 5.28003L19.0462 5.01378C19.0233 4.99983 18.9976 4.99098 18.9709 4.98782C18.9443 4.98465 18.9172 4.98725 18.8917 4.99544C18.8661 5.00363 18.8426 5.01722 18.8227 5.03528C18.8028 5.05335 18.7871 5.07547 18.7765 5.10015C18.7659 5.12483 18.7608 5.1515 18.7614 5.17834C18.762 5.20519 18.7684 5.23159 18.7801 5.25575C18.7918 5.27992 18.8086 5.30129 18.8293 5.31842C18.8499 5.33554 18.8741 5.34803 18.9 5.35503V5.37003ZM22.275 7.97628C22.2559 7.93159 22.2202 7.89606 22.1754 7.87717C22.1307 7.85829 22.0803 7.85752 22.035 7.87503C22.0122 7.88373 21.9914 7.89687 21.9737 7.9137C21.9561 7.93053 21.942 7.95069 21.9322 7.97303C21.9224 7.99537 21.9172 8.01943 21.9168 8.04381C21.9164 8.06819 21.9209 8.0924 21.93 8.11503L22.1775 8.73753C22.1915 8.77177 22.2154 8.80108 22.2461 8.82177C22.2768 8.84246 22.313 8.85359 22.35 8.85378C22.3723 8.85735 22.3951 8.85735 22.4175 8.85378C22.4628 8.8354 22.4992 8.8 22.5188 8.75516C22.5385 8.71031 22.5398 8.65957 22.5225 8.61378L22.275 7.97628ZM23.8612 7.10253L23.25 6.83628C23.2275 6.8246 23.2028 6.81771 23.1775 6.81603C23.1522 6.81435 23.1268 6.81793 23.103 6.82654C23.0791 6.83514 23.0573 6.84859 23.0389 6.86604C23.0205 6.88348 23.0059 6.90455 22.9961 6.92791C22.9862 6.95126 22.9813 6.97641 22.9816 7.00176C22.9819 7.02711 22.9875 7.05212 22.998 7.07522C23.0084 7.09831 23.0236 7.11899 23.0424 7.13595C23.0613 7.15291 23.0834 7.16579 23.1075 7.17378L23.7225 7.44003C23.7459 7.44534 23.7703 7.44534 23.7937 7.44003C23.8303 7.44016 23.8662 7.42957 23.8968 7.40958C23.9275 7.38959 23.9516 7.36107 23.9662 7.32753C23.98 7.28369 23.9769 7.23626 23.9575 7.19461C23.938 7.15296 23.9037 7.1201 23.8612 7.10253ZM23.19 5.70003C23.2121 5.70558 23.2353 5.70558 23.2575 5.70003L23.8837 5.45253C23.9295 5.43463 23.9662 5.39928 23.9859 5.35427C24.0056 5.30927 24.0066 5.25828 23.9887 5.21253C23.9708 5.16678 23.9355 5.13001 23.8905 5.11032C23.8455 5.09063 23.7945 5.08963 23.7487 5.10753L23.1225 5.35878C23.0816 5.37375 23.0473 5.40275 23.0258 5.44062C23.0044 5.47848 22.997 5.52275 23.0051 5.56554C23.0132 5.60832 23.0363 5.64683 23.0701 5.67421C23.104 5.70159 23.1464 5.71605 23.19 5.71503V5.70003Z" fill="#090909"/>
</g>
<defs>
<clipPath id="clip0_67_4552">
<rect width="24" height="24" fill="white"/>
</clipPath>
</defs>
</svg>
