<svg width="24" height="24" viewBox="0 0 24 24" fill="none" xmlns="http://www.w3.org/2000/svg">
<g clip-path="url(#clip0_42_472)">
<path d="M7.64732 7.88839C7.55804 7.66518 7.40625 7.50893 7.19196 7.41964C6.97768 7.33036 6.75893 7.33036 6.53571 7.41964C5.57143 7.8125 4.71875 8.37946 3.97768 9.12054C3.23661 9.86161 2.66964 10.7143 2.27679 11.6786C2.1875 11.9018 2.1875 12.1205 2.27679 12.3348C2.36607 12.5491 2.52232 12.7009 2.74554 12.7902C2.86161 12.8348 2.96875 12.8571 3.06696 12.8571C3.44196 12.8571 3.70982 12.6786 3.87054 12.3214C4.17411 11.5714 4.61384 10.9085 5.18973 10.3326C5.76563 9.7567 6.42857 9.31696 7.17857 9.01339C7.40179 8.91518 7.55804 8.75893 7.64732 8.54464C7.73661 8.33036 7.73661 8.11161 7.64732 7.88839ZM20.2634 3.12054L20.8795 3.73661L17.6116 6.99107L18.5223 7.90179C18.692 8.07143 18.7768 8.27455 18.7768 8.51116C18.7768 8.74777 18.692 8.95089 18.5223 9.12054L17.6652 9.97768C18.4598 11.4152 18.8571 12.9464 18.8571 14.5714C18.8571 15.8482 18.6094 17.0692 18.1138 18.2344C17.6183 19.3996 16.9487 20.404 16.1049 21.2478C15.2612 22.0915 14.2567 22.7612 13.0915 23.2567C11.9263 23.7522 10.7054 24 9.42857 24C8.15179 24 6.9308 23.7522 5.76563 23.2567C4.60045 22.7612 3.59598 22.0915 2.75223 21.2478C1.90848 20.404 1.23884 19.3996 0.743304 18.2344C0.247768 17.0692 0 15.8482 0 14.5714C0 13.2946 0.247768 12.0737 0.743304 10.9085C1.23884 9.7433 1.90848 8.73884 2.75223 7.89509C3.59598 7.05134 4.60045 6.3817 5.76563 5.88616C6.9308 5.39063 8.15179 5.14286 9.42857 5.14286C11.0536 5.14286 12.5848 5.54018 14.0223 6.33482L14.8795 5.47768C15.0491 5.30804 15.2522 5.22321 15.4888 5.22321C15.7254 5.22321 15.9286 5.30804 16.0982 5.47768L17.0089 6.38839L20.2634 3.12054ZM20.3705 2.37054C20.2813 2.45982 20.183 2.50446 20.0759 2.50446C19.9598 2.50446 19.8571 2.45982 19.7679 2.37054L18.5491 1.16518C18.4688 1.07589 18.4286 0.973214 18.4286 0.857143C18.4286 0.741071 18.4688 0.638393 18.5491 0.549107C18.6384 0.46875 18.7411 0.428571 18.8571 0.428571C18.9732 0.428571 19.0759 0.46875 19.1652 0.549107L20.3705 1.76786C20.4598 1.84821 20.5045 1.94866 20.5045 2.0692C20.5045 2.18973 20.4598 2.29018 20.3705 2.37054ZM23.4509 5.45089C23.3527 5.53125 23.25 5.57143 23.1429 5.57143C23.0357 5.57143 22.933 5.53125 22.8348 5.45089L21.6295 4.23214C21.5402 4.15179 21.4955 4.05134 21.4955 3.9308C21.4955 3.81027 21.5402 3.70982 21.6295 3.62946C21.7098 3.54018 21.8103 3.49554 21.9308 3.49554C22.0513 3.49554 22.1518 3.54018 22.2321 3.62946L23.4509 4.83482C23.5313 4.92411 23.5714 5.02679 23.5714 5.14286C23.5714 5.25893 23.5313 5.36161 23.4509 5.45089ZM24 3C24 3.125 23.9598 3.22768 23.8795 3.30804C23.7991 3.38839 23.6964 3.42857 23.5714 3.42857H22.2857C22.1607 3.42857 22.058 3.38839 21.9777 3.30804C21.8973 3.22768 21.8571 3.125 21.8571 3C21.8571 2.875 21.8973 2.77232 21.9777 2.69196C22.058 2.61161 22.1607 2.57143 22.2857 2.57143H23.5714C23.6964 2.57143 23.7991 2.61161 23.8795 2.69196C23.9598 2.77232 24 2.875 24 3ZM21.4286 0.428571V1.71429C21.4286 1.83929 21.3884 1.94196 21.308 2.02232C21.2277 2.10268 21.125 2.14286 21 2.14286C20.875 2.14286 20.7723 2.10268 20.692 2.02232C20.6116 1.94196 20.5714 1.83929 20.5714 1.71429V0.428571C20.5714 0.303571 20.6116 0.200893 20.692 0.120536C20.7723 0.0401786 20.875 0 21 0C21.125 0 21.2277 0.0401786 21.308 0.120536C21.3884 0.200893 21.4286 0.303571 21.4286 0.428571ZM23.4509 1.16518L22.2321 2.37054C22.1429 2.45982 22.0446 2.50446 21.9375 2.50446C21.8214 2.50446 21.7188 2.45982 21.6295 2.37054C21.5402 2.29018 21.4955 2.18973 21.4955 2.0692C21.4955 1.94866 21.5402 1.84821 21.6295 1.76786L22.8348 0.549107C22.9241 0.46875 23.0268 0.428571 23.1429 0.428571C23.2589 0.428571 23.3616 0.46875 23.4509 0.549107C23.5313 0.638393 23.5714 0.741071 23.5714 0.857143C23.5714 0.973214 23.5313 1.07589 23.4509 1.16518Z" fill="black"/>
</g>
<defs>
<clipPath id="clip0_42_472">
<rect width="24" height="24" fill="white"/>
</clipPath>
</defs>
</svg>
