<svg width="24" height="24" viewBox="0 0 24 24" fill="none" xmlns="http://www.w3.org/2000/svg">
<path d="M3.78094 23.5102C3.78094 23.7796 3.56054 24 3.2911 24H3.06516C2.79572 24 2.57532 23.7796 2.57532 23.5102V0.48975C2.57541 0.220406 2.79572 0 3.06516 0H3.2911C3.56054 0 3.78094 0.220406 3.78094 0.48975V23.5102Z" fill="url(#paint0_linear_67_4537)"/>
<path opacity="0.2" d="M3.2911 23.5056H3.06516C2.79572 23.5056 2.57532 23.2852 2.57532 23.0158V23.5102C2.57532 23.7796 2.79572 24 3.06516 24H3.2911C3.56054 24 3.78094 23.7796 3.78094 23.5102V23.0158C3.78094 23.2852 3.56054 23.5056 3.2911 23.5056Z" fill="#4285F4"/>
<path d="M20.3293 0.438477H4.10966C4.07253 0.438477 4.03625 0.440445 3.99988 0.443914V12.3779C4.03625 12.3818 4.07253 12.3835 4.10966 12.3835H20.3293C20.9315 12.3835 21.4247 11.8904 21.4247 11.2877V1.53423C21.4246 0.931602 20.9315 0.438477 20.3293 0.438477Z" fill="url(#paint1_linear_67_4537)"/>
<path opacity="0.2" d="M20.3293 11.8891H4.10966C4.07253 11.8891 4.03625 11.8873 3.99988 11.8835V12.3779C4.03625 12.3818 4.07253 12.3836 4.10966 12.3836H20.3293C20.9315 12.3836 21.4247 11.8904 21.4247 11.2877V10.7933C21.4246 11.396 20.9315 11.8891 20.3293 11.8891Z" fill="#34A853"/>
<defs>
<linearGradient id="paint0_linear_67_4537" x1="3.17813" y1="-0.145031" x2="3.17813" y2="24.2832" gradientUnits="userSpaceOnUse">
<stop stop-color="#464646"/>
<stop offset="1" stop-color="#1E1E1E"/>
</linearGradient>
<linearGradient id="paint1_linear_67_4537" x1="12.7123" y1="0.843945" x2="12.7123" y2="12.7187" gradientUnits="userSpaceOnUse">
<stop stop-color="#F1E454"/>
<stop offset="1" stop-color="#EAA535"/>
</linearGradient>
</defs>
</svg>
